<svg width="129" height="128" viewBox="0 0 129 128" fill="none" xmlns="http://www.w3.org/2000/svg">
<g filter="url(#filter0_i_1190_29)">
<path d="M17.8135 90.8135C8.62916 81.6292 4.037 77.037 2.23508 71.774C0.509808 66.7349 0.509808 61.2651 2.23508 56.226C4.037 50.963 8.62916 46.3708 17.8135 37.1865L37.7256 17.2744C46.9099 8.09006 51.5021 3.49789 56.7651 1.69597C61.8042 -0.0292958 67.274 -0.0292958 72.3131 1.69597C77.5761 3.49789 82.1683 8.09006 91.3526 17.2744L111.265 37.1865C120.449 46.3708 125.041 50.963 126.843 56.226C128.568 61.2651 128.568 66.7349 126.843 71.774C125.041 77.037 120.449 81.6292 111.265 90.8135L91.3526 110.726C82.1683 119.91 77.5761 124.502 72.3131 126.304C67.274 128.029 61.8042 128.029 56.7651 126.304C51.5021 124.502 46.9099 119.91 37.7256 110.726L17.8135 90.8135Z" fill="url(#paint0_linear_1190_29)"/>
</g>
<path d="M38.5666 90.1696C34.5627 88.3632 32.5608 87.46 31.9243 86.1921C31.371 85.0899 31.357 83.7942 31.8864 82.6804C32.4954 81.399 34.4773 80.4527 38.4412 78.5603L61.833 67.3925C62.8483 66.9077 63.356 66.6654 63.8864 66.5702C64.3563 66.4858 64.8376 66.4863 65.3073 66.5716C65.8376 66.6678 66.3448 66.9112 67.3591 67.3979L90.6882 78.5922C94.6159 80.4769 96.5798 81.4193 97.187 82.6961C97.7148 83.8062 97.7031 85.0972 97.155 86.1974C96.5246 87.463 94.5439 88.3693 90.5823 90.182L67.4158 100.782C66.4428 101.228 65.9563 101.45 65.4494 101.539C65.0002 101.618 64.5409 101.619 64.0913 101.543C63.584 101.457 63.0963 101.237 62.1209 100.796L38.5666 90.1696Z" fill="url(#paint1_linear_1190_29)"/>
<g style="mix-blend-mode:overlay">
<path d="M32.7893 83.1093C32.9582 82.754 33.3786 82.325 34.4155 81.7096C35.4344 81.1049 36.8723 80.4174 38.8722 79.4626L62.2641 68.2945C63.1959 67.8497 63.5936 67.6675 63.9241 67.5847L64.0629 67.555C64.3273 67.5075 64.5965 67.4956 64.8633 67.5198L65.1284 67.5557C65.4034 67.6056 65.679 67.7114 66.2485 67.9769L66.9266 68.3001L90.2556 79.4936C92.2374 80.4446 93.6612 81.1289 94.6708 81.731C95.5697 82.267 96.0011 82.6614 96.208 82.9891L96.2839 83.1258C96.655 83.9063 96.6704 84.8059 96.3323 85.5952L96.2598 85.7519C96.0845 86.1034 95.6597 86.5229 94.6218 87.1164C93.8564 87.5541 92.8571 88.0338 91.5621 88.6322L90.1665 89.2723L66.9998 99.8727C66.107 100.281 65.7262 100.449 65.4102 100.526L65.2769 100.554C65.0243 100.598 64.7674 100.609 64.5125 100.588L64.2583 100.556C63.9075 100.497 63.555 100.347 62.532 99.8851L38.9779 89.2578C36.9581 88.3465 35.5066 87.6906 34.4749 87.1081C33.4245 86.5151 32.9942 86.0952 32.8176 85.7437C32.4027 84.9171 32.3923 83.9446 32.7893 83.1093Z" stroke="white" stroke-opacity="0.2" stroke-width="2"/>
</g>
<path d="M38.5666 71.1696C34.5627 69.3632 32.5608 68.46 31.9243 67.1921C31.371 66.0899 31.357 64.7942 31.8864 63.6804C32.4954 62.399 34.4773 61.4527 38.4412 59.5603L61.833 48.3925C62.8483 47.9077 63.356 47.6654 63.8864 47.5702C64.3563 47.4858 64.8376 47.4863 65.3073 47.5716C65.8376 47.6678 66.3448 47.9112 67.3591 48.3979L90.6882 59.5922C94.6159 61.4769 96.5798 62.4193 97.187 63.6961C97.7148 64.8062 97.7031 66.0972 97.155 67.1974C96.5246 68.463 94.5439 69.3693 90.5823 71.182L67.4158 81.7824C66.4428 82.2276 65.9563 82.4502 65.4494 82.5389C65.0002 82.6176 64.5409 82.6188 64.0913 82.5426C63.584 82.4565 63.0963 82.2365 62.1209 81.7965L38.5666 71.1696Z" fill="url(#paint2_linear_1190_29)"/>
<g style="mix-blend-mode:overlay">
<path d="M32.7893 64.1093C32.9582 63.754 33.3786 63.325 34.4155 62.7096C35.4344 62.1049 36.8723 61.4174 38.8722 60.4626L62.2641 49.2945C63.1959 48.8497 63.5936 48.6675 63.9241 48.5847L64.0629 48.555C64.3273 48.5075 64.5965 48.4956 64.8633 48.5198L65.1284 48.5557C65.4034 48.6056 65.679 48.7114 66.2485 48.9769L66.9266 49.3001L90.2556 60.4936C92.2374 61.4446 93.6612 62.1289 94.6708 62.731C95.5697 63.267 96.0011 63.6614 96.208 63.9891L96.2839 64.1258C96.655 64.9063 96.6704 65.8059 96.3323 66.5952L96.2598 66.7519C96.0845 67.1034 95.6597 67.5229 94.6218 68.1164C93.8564 68.5541 92.8571 69.0338 91.5621 69.6322L90.1665 70.2723L66.9998 80.8727C66.107 81.2812 65.7262 81.4492 65.4102 81.5259L65.2769 81.5542C65.0243 81.5984 64.7674 81.6092 64.5125 81.5881L64.2583 81.5563C63.9075 81.4968 63.555 81.3466 62.532 80.8851L38.9779 70.2578C36.9581 69.3465 35.5066 68.6906 34.4749 68.1081C33.4245 67.5151 32.9942 67.0952 32.8176 66.7437C32.4027 65.9171 32.3923 64.9446 32.7893 64.1093Z" stroke="white" stroke-opacity="0.2" stroke-width="2"/>
</g>
<path d="M38.5666 51.1696C34.5627 49.3632 32.5608 48.46 31.9243 47.1921C31.371 46.0899 31.357 44.7942 31.8864 43.6804C32.4954 42.399 34.4773 41.4527 38.4412 39.5603L61.833 28.3925C62.8483 27.9077 63.356 27.6654 63.8864 27.5702C64.3563 27.4858 64.8376 27.4863 65.3073 27.5716C65.8376 27.6678 66.3448 27.9112 67.3591 28.3979L90.6882 39.5922C94.6159 41.4769 96.5798 42.4193 97.187 43.6961C97.7148 44.8062 97.7031 46.0972 97.155 47.1974C96.5246 48.463 94.5439 49.3693 90.5823 51.182L67.4158 61.7824C66.4428 62.2276 65.9563 62.4502 65.4494 62.5389C65.0002 62.6176 64.5409 62.6188 64.0913 62.5426C63.584 62.4565 63.0963 62.2365 62.1209 61.7965L38.5666 51.1696Z" fill="url(#paint3_linear_1190_29)"/>
<g style="mix-blend-mode:overlay">
<path d="M32.7893 44.1093C32.9582 43.754 33.3786 43.325 34.4155 42.7096C35.4344 42.1049 36.8723 41.4174 38.8722 40.4626L62.2641 29.2945C63.1959 28.8497 63.5936 28.6675 63.9241 28.5847L64.0629 28.555C64.3273 28.5075 64.5965 28.4956 64.8633 28.5198L65.1284 28.5557C65.4034 28.6056 65.679 28.7114 66.2485 28.9769L66.9266 29.3001L90.2556 40.4936C92.2374 41.4446 93.6612 42.1289 94.6708 42.731C95.5697 43.267 96.0011 43.6614 96.208 43.9891L96.2839 44.1258C96.655 44.9063 96.6704 45.8059 96.3323 46.5952L96.2598 46.7519C96.0845 47.1034 95.6597 47.5229 94.6218 48.1164C93.8564 48.5541 92.8571 49.0338 91.5621 49.6322L90.1665 50.2723L66.9998 60.8727C66.107 61.2812 65.7262 61.4492 65.4102 61.5259L65.2769 61.5542C65.0243 61.5984 64.7674 61.6092 64.5125 61.5881L64.2583 61.5563C63.9075 61.4968 63.555 61.3466 62.532 60.8851L38.9779 50.2578C36.9581 49.3465 35.5066 48.6906 34.4749 48.1081C33.4245 47.5151 32.9942 47.0952 32.8176 46.7437C32.4027 45.9171 32.3923 44.9446 32.7893 44.1093Z" stroke="white" stroke-opacity="0.2" stroke-width="2"/>
</g>
<defs>
<filter id="filter0_i_1190_29" x="0.941162" y="0.401978" width="127.196" height="127.196" filterUnits="userSpaceOnUse" color-interpolation-filters="sRGB">
<feFlood flood-opacity="0" result="BackgroundImageFix"/>
<feBlend mode="normal" in="SourceGraphic" in2="BackgroundImageFix" result="shape"/>
<feColorMatrix in="SourceAlpha" type="matrix" values="0 0 0 0 0 0 0 0 0 0 0 0 0 0 0 0 0 0 127 0" result="hardAlpha"/>
<feOffset dy="-4"/>
<feComposite in2="hardAlpha" operator="arithmetic" k2="-1" k3="1"/>
<feColorMatrix type="matrix" values="0 0 0 0 0.0666667 0 0 0 0 0.0666667 0 0 0 0 0.0666667 0 0 0 0.4 0"/>
<feBlend mode="normal" in2="shape" result="effect1_innerShadow_1190_29"/>
</filter>
<linearGradient id="paint0_linear_1190_29" x1="8.52299" y1="46.477" x2="119.693" y2="82.3848" gradientUnits="userSpaceOnUse">
<stop stop-color="#2B5076"/>
<stop offset="1"/>
</linearGradient>
<linearGradient id="paint1_linear_1190_29" x1="45.25" y1="65.25" x2="83.75" y2="103.75" gradientUnits="userSpaceOnUse">
<stop stop-color="#DB2860"/>
<stop offset="1" stop-color="#268EF9"/>
</linearGradient>
<linearGradient id="paint2_linear_1190_29" x1="45.25" y1="46.25" x2="83.75" y2="84.75" gradientUnits="userSpaceOnUse">
<stop stop-color="#F0F0F2" stop-opacity="0.1"/>
<stop offset="1" stop-color="#2D2D2D"/>
</linearGradient>
<linearGradient id="paint3_linear_1190_29" x1="45.25" y1="26.25" x2="83.75" y2="64.75" gradientUnits="userSpaceOnUse">
<stop stop-color="#56B4FF"/>
<stop offset="1" stop-color="#DB2860"/>
</linearGradient>
</defs>
</svg>
